<svg width="63" height="34" viewBox="0 0 63 34" fill="none" xmlns="http://www.w3.org/2000/svg">
<g filter="url(#filter0_d_88_50)">
<mask id="path-1-outside-1_88_50" maskUnits="userSpaceOnUse" x="4" y="4" width="55" height="26" fill="black">
<rect fill="white" x="4" y="4" width="55" height="26"/>
<path d="M14.44 26.312C10.384 26.312 7.552 23.744 7.552 19.808C7.552 15.824 10.312 13.304 14.44 13.304C17.992 13.304 20.584 15.152 20.968 18.248L16.816 18.776C16.576 17.672 15.592 16.904 14.512 16.904C13.096 16.904 12.04 18.104 12.04 19.808C12.04 21.512 13.072 22.712 14.488 22.712C15.616 22.712 16.576 21.944 16.816 20.864L20.968 21.368C20.56 24.464 17.968 26.312 14.44 26.312ZM25.4192 26H20.9312V8.096H25.4192V15.392H25.6593C26.6192 13.976 27.6752 13.304 29.1393 13.304C31.7073 13.304 33.5072 15.392 33.5072 18.272V26H28.9952V19.088C28.9952 17.912 28.3233 17.072 27.2673 17.072C26.2113 17.072 25.4192 17.936 25.4192 19.184V26ZM37.3094 26.288C34.8614 26.288 33.1814 24.992 33.1814 22.736C33.1814 20.336 35.1254 19.064 39.1814 18.512L41.3414 18.248V17.696C41.3414 16.784 40.7414 16.16 39.7094 16.16C38.7254 16.16 38.0294 16.784 38.0294 17.84H33.6854C33.6854 15.08 36.0614 13.304 39.7574 13.304C43.4294 13.304 45.8534 15.08 45.8534 17.864V26H41.3414V24.536H41.1014C40.4054 25.688 38.9174 26.288 37.3094 26.288ZM39.0614 23.576C40.4054 23.576 41.3414 22.64 41.3414 21.368V20.624L39.3494 20.912C38.0294 21.08 37.5014 21.584 37.5014 22.304C37.5014 23.072 38.0774 23.576 39.0614 23.576ZM48.445 12.272C46.981 12.272 45.901 11.24 45.901 9.8C45.901 8.36 46.981 7.352 48.445 7.352C49.957 7.352 51.013 8.36 51.013 9.8C51.013 11.24 49.957 12.272 48.445 12.272ZM50.701 26H46.213V13.616H50.701V26ZM53.203 26.264C51.739 26.264 50.683 25.256 50.683 23.84C50.683 22.424 51.739 21.416 53.203 21.416C54.667 21.416 55.723 22.424 55.723 23.84C55.723 25.256 54.667 26.264 53.203 26.264Z"/>
</mask>
<path d="M14.44 26.312C10.384 26.312 7.552 23.744 7.552 19.808C7.552 15.824 10.312 13.304 14.44 13.304C17.992 13.304 20.584 15.152 20.968 18.248L16.816 18.776C16.576 17.672 15.592 16.904 14.512 16.904C13.096 16.904 12.04 18.104 12.04 19.808C12.04 21.512 13.072 22.712 14.488 22.712C15.616 22.712 16.576 21.944 16.816 20.864L20.968 21.368C20.56 24.464 17.968 26.312 14.44 26.312ZM25.4192 26H20.9312V8.096H25.4192V15.392H25.6593C26.6192 13.976 27.6752 13.304 29.1393 13.304C31.7073 13.304 33.5072 15.392 33.5072 18.272V26H28.9952V19.088C28.9952 17.912 28.3233 17.072 27.2673 17.072C26.2113 17.072 25.4192 17.936 25.4192 19.184V26ZM37.3094 26.288C34.8614 26.288 33.1814 24.992 33.1814 22.736C33.1814 20.336 35.1254 19.064 39.1814 18.512L41.3414 18.248V17.696C41.3414 16.784 40.7414 16.16 39.7094 16.16C38.7254 16.16 38.0294 16.784 38.0294 17.84H33.6854C33.6854 15.08 36.0614 13.304 39.7574 13.304C43.4294 13.304 45.8534 15.08 45.8534 17.864V26H41.3414V24.536H41.1014C40.4054 25.688 38.9174 26.288 37.3094 26.288ZM39.0614 23.576C40.4054 23.576 41.3414 22.64 41.3414 21.368V20.624L39.3494 20.912C38.0294 21.08 37.5014 21.584 37.5014 22.304C37.5014 23.072 38.0774 23.576 39.0614 23.576ZM48.445 12.272C46.981 12.272 45.901 11.24 45.901 9.8C45.901 8.36 46.981 7.352 48.445 7.352C49.957 7.352 51.013 8.36 51.013 9.8C51.013 11.24 49.957 12.272 48.445 12.272ZM50.701 26H46.213V13.616H50.701V26ZM53.203 26.264C51.739 26.264 50.683 25.256 50.683 23.84C50.683 22.424 51.739 21.416 53.203 21.416C54.667 21.416 55.723 22.424 55.723 23.84C55.723 25.256 54.667 26.264 53.203 26.264Z" fill="black"/>
<path d="M20.968 18.248L21.3465 21.224C22.9865 21.0155 24.1487 19.5194 23.9452 17.8787L20.968 18.248ZM16.816 18.776L13.8845 19.4133C14.2148 20.933 15.6517 21.9482 17.1945 21.752L16.816 18.776ZM16.816 20.864L17.1775 17.8859C15.6454 17.6999 14.2222 18.7066 13.8874 20.2132L16.816 20.864ZM20.968 21.368L23.9423 21.76C24.0469 20.9659 23.8297 20.1629 23.3389 19.5299C22.8482 18.8969 22.1246 18.4864 21.3295 18.3899L20.968 21.368ZM14.44 26.312V23.312C13.0449 23.312 12.0951 22.8778 11.522 22.3428C10.9691 21.8268 10.552 21.0217 10.552 19.808H7.552H4.552C4.552 22.5303 5.55091 24.9772 7.42805 26.7292C9.28488 28.4622 11.7791 29.312 14.44 29.312V26.312ZM7.552 19.808H10.552C10.552 18.5395 10.9717 17.7446 11.4973 17.253C12.0446 16.7411 12.9832 16.304 14.44 16.304V13.304V10.304C11.7688 10.304 9.26343 11.1269 7.39872 12.871C5.5123 14.6354 4.552 17.0925 4.552 19.808H7.552ZM14.44 13.304V16.304C15.7126 16.304 16.5814 16.6348 17.1001 17.0211C17.5765 17.3759 17.8984 17.8725 17.9908 18.6173L20.968 18.248L23.9452 17.8787C23.6536 15.5275 22.4875 13.5521 20.6839 12.2089C18.9226 10.8972 16.7194 10.304 14.44 10.304V13.304ZM20.968 18.248L20.5895 15.272L16.4375 15.8L16.816 18.776L17.1945 21.752L21.3465 21.224L20.968 18.248ZM16.816 18.776L19.7475 18.1387C19.2057 15.6464 16.9938 13.904 14.512 13.904V16.904V19.904C14.1902 19.904 13.9463 19.6976 13.8845 19.4133L16.816 18.776ZM14.512 16.904V13.904C11.0295 13.904 9.04 16.8889 9.04 19.808H12.04H15.04C15.04 19.5692 15.1106 19.5672 15.02 19.6727C14.9752 19.7247 14.9013 19.788 14.797 19.8367C14.6909 19.8862 14.5885 19.904 14.512 19.904V16.904ZM12.04 19.808H9.04C9.04 22.6859 10.9703 25.712 14.488 25.712V22.712V19.712C14.5649 19.712 14.6719 19.73 14.7847 19.783C14.8956 19.8352 14.974 19.9032 15.0211 19.9588C15.115 20.0695 15.04 20.0644 15.04 19.808H12.04ZM14.488 22.712V25.712C17.0015 25.712 19.1951 23.9874 19.7446 21.5148L16.816 20.864L13.8874 20.2132C13.9569 19.9006 14.2305 19.712 14.488 19.712V22.712ZM16.816 20.864L16.4545 23.8421L20.6065 24.3461L20.968 21.368L21.3295 18.3899L17.1775 17.8859L16.816 20.864ZM20.968 21.368L17.9937 20.976C17.8944 21.73 17.5645 22.2357 17.0821 22.5949C16.5601 22.9837 15.6955 23.312 14.44 23.312V26.312V29.312C16.7125 29.312 18.9079 28.7163 20.6659 27.4071C22.4635 26.0683 23.6336 24.102 23.9423 21.76L20.968 21.368ZM25.4192 26V29C27.0761 29 28.4192 27.6569 28.4192 26H25.4192ZM20.9312 26H17.9312C17.9312 27.6569 19.2744 29 20.9312 29V26ZM20.9312 8.096V5.096C19.2744 5.096 17.9312 6.43914 17.9312 8.096H20.9312ZM25.4192 8.096H28.4192C28.4192 6.43914 27.0761 5.096 25.4192 5.096V8.096ZM25.4192 15.392H22.4192C22.4192 17.0489 23.7624 18.392 25.4192 18.392V15.392ZM25.6593 15.392V18.392C26.654 18.392 27.5841 17.8989 28.1424 17.0755L25.6593 15.392ZM33.5072 26V29C35.1641 29 36.5072 27.6569 36.5072 26H33.5072ZM28.9952 26H25.9952C25.9952 27.6569 27.3384 29 28.9952 29V26ZM25.4192 26V23H20.9312V26V29H25.4192V26ZM20.9312 26H23.9312V8.096H20.9312H17.9312V26H20.9312ZM20.9312 8.096V11.096H25.4192V8.096V5.096H20.9312V8.096ZM25.4192 8.096H22.4192V15.392H25.4192H28.4192V8.096H25.4192ZM25.4192 15.392V18.392H25.6593V15.392V12.392H25.4192V15.392ZM25.6593 15.392L28.1424 17.0755C28.4671 16.5965 28.6817 16.4334 28.7697 16.3799C28.821 16.3486 28.9011 16.304 29.1393 16.304V13.304V10.304C27.9134 10.304 26.7335 10.5954 25.6508 11.2541C24.6048 11.8906 23.8114 12.7715 23.1761 13.7085L25.6593 15.392ZM29.1393 13.304V16.304C29.5566 16.304 29.8255 16.4513 30.0276 16.6824C30.2539 16.9413 30.5072 17.4498 30.5072 18.272H33.5072H36.5072C36.5072 14.1269 33.7304 10.304 29.1393 10.304V13.304ZM33.5072 18.272H30.5072V26H33.5072H36.5072V18.272H33.5072ZM33.5072 26V23H28.9952V26V29H33.5072V26ZM28.9952 26H31.9952V19.088H28.9952H25.9952V26H28.9952ZM28.9952 19.088H31.9952C31.9952 17.9482 31.6685 16.7139 30.824 15.709C29.9385 14.6553 28.657 14.072 27.2673 14.072V17.072V20.072C27.1273 20.072 26.9369 20.0425 26.7308 19.9479C26.5245 19.8532 26.3549 19.717 26.2305 19.569C25.986 19.2781 25.9952 19.0518 25.9952 19.088H28.9952ZM27.2673 17.072V14.072C24.2267 14.072 22.4192 16.6271 22.4192 19.184H25.4192H28.4192C28.4192 19.1934 28.4111 19.4033 28.1915 19.6508C27.9558 19.9165 27.6027 20.072 27.2673 20.072V17.072ZM25.4192 19.184H22.4192V26H25.4192H28.4192V19.184H25.4192ZM39.1814 18.512L38.8174 15.5342C38.8039 15.5358 38.7903 15.5376 38.7768 15.5394L39.1814 18.512ZM41.3414 18.248L41.7053 21.2258C43.2102 21.0419 44.3414 19.7641 44.3414 18.248H41.3414ZM38.0294 17.84V20.84C39.6862 20.84 41.0294 19.4969 41.0294 17.84H38.0294ZM33.6854 17.84H30.6854C30.6854 19.4969 32.0285 20.84 33.6854 20.84V17.84ZM45.8534 26V29C47.5102 29 48.8534 27.6569 48.8534 26H45.8534ZM41.3414 26H38.3414C38.3414 27.6569 39.6845 29 41.3414 29V26ZM41.3414 24.536H44.3414C44.3414 22.8791 42.9982 21.536 41.3414 21.536V24.536ZM41.1014 24.536V21.536C40.0509 21.536 39.0769 22.0855 38.5336 22.9847L41.1014 24.536ZM41.3414 20.624H44.3414C44.3414 19.7534 43.9632 18.9258 43.3051 18.356C42.6469 17.7861 41.7737 17.5303 40.9121 17.6549L41.3414 20.624ZM39.3494 20.912L39.7281 23.888C39.745 23.8858 39.7618 23.8836 39.7786 23.8811L39.3494 20.912ZM37.3094 26.288V23.288C36.5849 23.288 36.2986 23.0957 36.2498 23.0549C36.23 23.0384 36.2269 23.0318 36.2218 23.0204C36.2151 23.0053 36.1814 22.9237 36.1814 22.736H33.1814H30.1814C30.1814 24.6726 30.9363 26.4352 32.4049 27.6611C33.8081 28.8323 35.5859 29.288 37.3094 29.288V26.288ZM33.1814 22.736H36.1814C36.1814 22.5527 36.2149 22.5163 36.2016 22.5414C36.1891 22.5653 36.2046 22.5106 36.3672 22.3981C36.7739 22.1167 37.7076 21.7402 39.5859 21.4846L39.1814 18.512L38.7768 15.5394C36.5991 15.8358 34.5328 16.3713 32.9535 17.4639C31.1613 18.7038 30.1814 20.5384 30.1814 22.736H33.1814ZM39.1814 18.512L39.5453 21.4898L41.7053 21.2258L41.3414 18.248L40.9774 15.2702L38.8174 15.5342L39.1814 18.512ZM41.3414 18.248H44.3414V17.696H41.3414H38.3414V18.248H41.3414ZM41.3414 17.696H44.3414C44.3414 16.5677 43.9554 15.3561 42.9986 14.4302C42.0483 13.5105 40.8332 13.16 39.7094 13.16V16.16V19.16C39.6176 19.16 39.2184 19.1215 38.8261 18.7418C38.4274 18.3559 38.3414 17.9123 38.3414 17.696H41.3414ZM39.7094 16.16V13.16C38.5817 13.16 37.3642 13.5269 36.4119 14.4503C35.445 15.3879 35.0294 16.6305 35.0294 17.84H38.0294H41.0294C41.0294 17.9935 40.9617 18.3961 40.5888 18.7577C40.2306 19.1051 39.853 19.16 39.7094 19.16V16.16ZM38.0294 17.84V14.84H33.6854V17.84V20.84H38.0294V17.84ZM33.6854 17.84H36.6854C36.6854 17.4226 36.8198 17.1728 37.131 16.9403C37.5249 16.646 38.3509 16.304 39.7574 16.304V13.304V10.304C37.4678 10.304 35.2578 10.85 33.5397 12.1337C31.739 13.4792 30.6854 15.4974 30.6854 17.84H33.6854ZM39.7574 13.304V16.304C41.1484 16.304 41.9849 16.6445 42.3922 16.9473C42.7177 17.1894 42.8534 17.4473 42.8534 17.864H45.8534H48.8534C48.8534 15.4967 47.7771 13.4746 45.9726 12.1327C44.2498 10.8515 42.0384 10.304 39.7574 10.304V13.304ZM45.8534 17.864H42.8534V26H45.8534H48.8534V17.864H45.8534ZM45.8534 26V23H41.3414V26V29H45.8534V26ZM41.3414 26H44.3414V24.536H41.3414H38.3414V26H41.3414ZM41.3414 24.536V21.536H41.1014V24.536V27.536H41.3414V24.536ZM41.1014 24.536L38.5336 22.9847C38.5637 22.9349 38.5453 23.0062 38.3266 23.1036C38.1043 23.2026 37.7555 23.288 37.3094 23.288V26.288V29.288C39.4977 29.288 42.2244 28.4786 43.6691 26.0873L41.1014 24.536ZM39.0614 23.576V26.576C41.9978 26.576 44.3414 24.3605 44.3414 21.368H41.3414H38.3414C38.3414 21.2453 38.3989 21.0084 38.6082 20.8038C38.8156 20.601 39.0206 20.576 39.0614 20.576V23.576ZM41.3414 21.368H44.3414V20.624H41.3414H38.3414V21.368H41.3414ZM41.3414 20.624L40.9121 17.6549L38.9201 17.9429L39.3494 20.912L39.7786 23.8811L41.7706 23.5931L41.3414 20.624ZM39.3494 20.912L38.9706 17.936C38.0584 18.0521 36.9704 18.329 36.0592 19.0561C35.0003 19.9011 34.5014 21.0953 34.5014 22.304H37.5014H40.5014C40.5014 22.4964 40.4643 22.7706 40.3258 23.0691C40.1848 23.3731 39.9866 23.5983 39.8016 23.7459C39.4844 23.999 39.3204 23.9399 39.7281 23.888L39.3494 20.912ZM37.5014 22.304H34.5014C34.5014 23.4969 34.9808 24.692 35.9944 25.5348C36.9468 26.3267 38.0865 26.576 39.0614 26.576V23.576V20.576C39.0675 20.576 39.15 20.5764 39.2855 20.6182C39.4239 20.6608 39.623 20.7488 39.8304 20.9212C40.31 21.32 40.5014 21.8791 40.5014 22.304H37.5014ZM50.701 26V29C52.3579 29 53.701 27.6569 53.701 26H50.701ZM46.213 26H43.213C43.213 27.6569 44.5561 29 46.213 29V26ZM46.213 13.616V10.616C44.5561 10.616 43.213 11.9591 43.213 13.616H46.213ZM50.701 13.616H53.701C53.701 11.9591 52.3579 10.616 50.701 10.616V13.616ZM48.445 12.272V9.272C48.4301 9.272 48.5604 9.27533 48.7093 9.41927C48.7782 9.48586 48.8307 9.56479 48.8637 9.64434C48.8968 9.7241 48.901 9.78171 48.901 9.8H45.901H42.901C42.901 12.9913 45.4202 15.272 48.445 15.272V12.272ZM45.901 9.8H48.901C48.901 9.81852 48.8967 9.88055 48.8606 9.96682C48.8246 10.0531 48.7676 10.1373 48.6944 10.207C48.538 10.3562 48.4099 10.352 48.445 10.352V7.352V4.352C45.4599 4.352 42.901 6.57054 42.901 9.8H45.901ZM48.445 7.352V10.352C48.5259 10.352 48.3963 10.3698 48.2256 10.207C48.1469 10.132 48.0877 10.0428 48.0514 9.95489C48.0155 9.86783 48.013 9.80947 48.013 9.8H51.013H54.013C54.013 8.31709 53.4534 6.90155 52.3664 5.86495C51.2897 4.83816 49.8761 4.352 48.445 4.352V7.352ZM51.013 9.8H48.013C48.013 9.79072 48.0154 9.73678 48.0484 9.65623C48.0817 9.57504 48.1364 9.49114 48.2107 9.41927C48.3741 9.26129 48.5058 9.272 48.445 9.272V12.272V15.272C49.8962 15.272 51.3119 14.7667 52.3813 13.7327C53.4565 12.6931 54.013 11.2793 54.013 9.8H51.013ZM50.701 26V23H46.213V26V29H50.701V26ZM46.213 26H49.213V13.616H46.213H43.213V26H46.213ZM46.213 13.616V16.616H50.701V13.616V10.616H46.213V13.616ZM50.701 13.616H47.701V26H50.701H53.701V13.616H50.701ZM53.203 26.264V23.264C53.1702 23.264 53.3077 23.2615 53.4713 23.4185C53.5471 23.4913 53.6052 23.5781 53.6417 23.666C53.6781 23.7538 53.683 23.8179 53.683 23.84H50.683H47.683C47.683 27.0279 50.1996 29.264 53.203 29.264V26.264ZM50.683 23.84H53.683C53.683 23.8621 53.6781 23.9262 53.6417 24.014C53.6052 24.1019 53.5471 24.1887 53.4713 24.2615C53.3077 24.4185 53.1702 24.416 53.203 24.416V21.416V18.416C50.1996 18.416 47.683 20.6521 47.683 23.84H50.683ZM53.203 21.416V24.416C53.2358 24.416 53.0983 24.4185 52.9347 24.2615C52.8589 24.1887 52.8008 24.1019 52.7643 24.014C52.7279 23.9262 52.723 23.8621 52.723 23.84H55.723H58.723C58.723 20.6521 56.2064 18.416 53.203 18.416V21.416ZM55.723 23.84H52.723C52.723 23.8179 52.7279 23.7538 52.7643 23.666C52.8008 23.5781 52.8589 23.4913 52.9347 23.4185C53.0983 23.2615 53.2358 23.264 53.203 23.264V26.264V29.264C56.2064 29.264 58.723 27.0279 58.723 23.84H55.723Z" fill="white" mask="url(#path-1-outside-1_88_50)"/>
</g>
<path d="M12 28.5C22.6667 28.8333 46.1 29.3 54.5 28.5" stroke="white"/>
<defs>
<filter id="filter0_d_88_50" x="0.552002" y="0.352005" width="62.171" height="32.96" filterUnits="userSpaceOnUse" color-interpolation-filters="sRGB">
<feFlood flood-opacity="0" result="BackgroundImageFix"/>
<feColorMatrix in="SourceAlpha" type="matrix" values="0 0 0 0 0 0 0 0 0 0 0 0 0 0 0 0 0 0 127 0" result="hardAlpha"/>
<feOffset/>
<feGaussianBlur stdDeviation="2"/>
<feComposite in2="hardAlpha" operator="out"/>
<feColorMatrix type="matrix" values="0 0 0 0 0 0 0 0 0 0 0 0 0 0 0 0 0 0 0.25 0"/>
<feBlend mode="normal" in2="BackgroundImageFix" result="effect1_dropShadow_88_50"/>
<feBlend mode="normal" in="SourceGraphic" in2="effect1_dropShadow_88_50" result="shape"/>
</filter>
</defs>
</svg>
